<?xml version="1.0" encoding="utf-8"?>
<!-- Generator: Adobe Illustrator 18.0.0, SVG Export Plug-In . SVG Version: 6.00 Build 0)  -->
<!DOCTYPE svg PUBLIC "-//W3C//DTD SVG 1.1//EN" "http://www.w3.org/Graphics/SVG/1.1/DTD/svg11.dtd">
<svg version="1.1" id="Layer_1" xmlns="http://www.w3.org/2000/svg" xmlns:xlink="http://www.w3.org/1999/xlink" x="0px" y="0px"
	 viewBox="679.9 7.6 499 500.5" enable-background="new 679.9 7.6 499 500.5" xml:space="preserve">
<g>
	<g>
		<path fill="#0066ff" d="M1168.8,371.7c-19.3-14.1-38.6-28.3-57.8-42.4c-1.6-1.2-3.6-2.5-5.5-1.2c-5.7,2.8-11.3,6.1-16.7,9.4
			c-3.2,1.6-3.7,5.4-4.6,8.6c-2.1,8.8-5,17.4-9.5,25.3c-5.4,9.7-13.8,17.5-23.3,23.1c-10.7,6-22.6,9.1-34.5,11.9
			c3.1-4.3,8.1-6.4,12.2-9.5c15.2-10.8,29.8-25,34.2-43.8c2.4-8.6,0.3-17.5-1.8-25.9c-8.1-33.6-20.1-66-29.3-99.3
			c-1.8-6.3-3.7-12.7-4.5-19.2c8.4,0.1,16.9-0.7,25.3,0.5c16.4,3.6,23.9,21.4,39.3,26.7c8.8,1.9,18.6,0.4,25.7-5.5
			c9-7.1,13.5-20.1,9.2-30.9c-12.1-23.7-36.9-38.6-62.3-44c-18.1-3.6-37.1-2.8-54.9,2.3c-10.6-36.9-21.5-73.7-33.5-110.2
			c-1.7-5.4-3.3-11-6.3-15.9c-7.3-11.8-19.6-20.1-33-23.4c-11.5-1.1-23.5-1.6-34.6,2.3c-50.1,13.3-100.2,27-150.1,40.9
			c-18.5,5.2-33.2,21.6-36.5,40.5c-0.7,7.5-1,15.2,1,22.5c14,43.3,26.7,87,39.8,130.5c-2.2-1.1-4.6-2.1-6.7-3.4
			c-11-6.6-19.5-16.5-30.3-23.3c-14.8-7.6-33.4,3.1-39,17.6c-1.5,6.5-1.7,13.9,2,19.7c4.9,8.3,11,16,18.6,21.9
			c20.2,16.2,46.6,23.7,72.3,22.5c5.6,17.8,11.5,35.6,17.6,53.3c1.3,4.2,3.7,8.3,3.3,12.7c-2.8,3.9-6.6,7-9.6,10.7
			c-19.7,23.4-29.8,53.2-34.4,83.1c-17.5,6.2-36.8,15.4-44.5,33.6c29.5,6,59.4,9.9,89.1,14.8c3.2-6,4.8-12.6,7.6-18.8
			c5.5-12.7,12.7-24.7,22.6-34.5c14.2-14.9,34.7-23.3,55.2-24.1c35.2-2,67.6,15.1,102.2,18.3c19,1.4,38.5,1.3,57-4.1
			c29.6-8,55.9-26.5,74.5-50.7c22.2,1.8,45.3-2.1,64.4-13.9C1176.6,376.5,1172.3,374.5,1168.8,371.7z M939,390.4
			c-9.8,1.2-19.8-8.3-18.4-18.2c-0.3-5.7,4.1-10.3,8.8-12.9c10.3-4.9,24.3,1.6,26.1,13.1C957.3,382,948.2,390.5,939,390.4z
			 M1004.8,296c-2,9.1-8.9,17.1-17.9,19.9c-26.9,9.1-54.7,15.3-82.1,23c-13,3.5-25.8,7.6-38.9,10.5c-8.3,0.8-17.3,1.5-24.6-3.2
			c-9.7-5.2-14.3-15.9-17.4-25.9c-19-62.9-38.1-125.8-57.5-188.6c-3.1-10.5-6.8-22.7-0.7-32.9c6-11.1,19.2-14.3,30.4-17.6
			c26.3-7,52.5-14.4,78.8-21.4c8.6-2,16.8-5.7,25.6-7.2c12-2.2,25.9,0.4,34.4,9.7c4.9,5.3,6.3,12.5,8.6,19.1
			c20.3,64,39.4,128.3,59.1,192.4C1005.3,281,1006.2,288.7,1004.8,296z"/>
	</g>
</g>
</svg>
